<?xml version="1.0" standalone="no"?>
<!DOCTYPE svg PUBLIC "-//W3C//DTD SVG 20010904//EN"
 "http://www.w3.org/TR/2001/REC-SVG-20010904/DTD/svg10.dtd">
<svg version="1.0" xmlns="http://www.w3.org/2000/svg"
 width="1695.000000pt" height="2016.000000pt" viewBox="0 0 1695.000000 2016.000000"
 preserveAspectRatio="xMidYMid meet">

<g transform="translate(0.000000,2016.000000) scale(0.100000,-0.100000)"
fill="#000000" stroke="none">
<path d="M7755 18964 c-27 -2 -115 -8 -195 -14 -1546 -113 -3064 -713 -4285
-1694 -291 -233 -666 -586 -912 -858 -1091 -1205 -1769 -2676 -1973 -4278 -71
-563 -78 -1181 -19 -1760 220 -2164 1344 -4143 3104 -5465 2164 -1626 5005
-2011 7525 -1020 1346 529 2526 1430 3405 2600 407 541 747 1143 1001 1774
469 1161 651 2442 523 3690 -217 2127 -1296 4066 -3002 5393 -1096 853 -2419
1404 -3788 1577 -342 44 -485 52 -914 56 -231 1 -442 1 -470 -1z m-1511 -922
l79 -82 -23 -81 c-13 -44 -28 -83 -35 -85 -6 -3 -54 2 -106 11 -113 18 -227
19 -282 3 -74 -22 -215 -174 -342 -366 -43 -64 -51 -72 -74 -68 -14 3 -84 6
-156 8 l-130 3 -185 -269 c-102 -147 -188 -269 -192 -270 -3 0 -61 39 -128 88
-87 63 -127 87 -136 80 -7 -5 -199 -151 -426 -324 -665 -508 -748 -570 -748
-560 0 5 29 93 65 197 l65 188 153 153 c291 293 610 584 867 791 400 321 685
460 1205 585 177 42 402 86 430 83 11 -1 56 -39 99 -85z m4053 63 c76 -14 221
-46 323 -71 581 -144 877 -309 1430 -795 187 -164 524 -484 665 -630 l100
-104 63 -188 c35 -104 62 -190 60 -191 -1 -2 -95 67 -208 153 -403 308 -955
727 -968 735 -8 5 -57 -25 -133 -81 -67 -48 -124 -88 -127 -88 -3 0 -89 122
-192 270 l-186 270 -49 -1 c-28 0 -98 -2 -157 -4 l-108 -4 -61 90 c-129 185
-235 300 -312 335 -48 21 -159 25 -267 9 -36 -6 -83 -13 -105 -16 l-40 -6 -24
85 -24 85 79 86 c43 47 84 86 91 86 6 0 74 -11 150 -25z m-3817 -613 l101 -59
69 -118 c38 -66 67 -122 66 -125 -2 -3 -36 -105 -75 -227 -39 -122 -74 -229
-77 -238 -5 -12 2 -15 37 -15 115 0 240 -134 226 -242 l-5 -38 66 7 c37 5 108
8 157 8 106 -1 157 -20 192 -74 61 -91 -5 -294 -183 -566 -51 -78 -58 -96 -58
-137 1 -55 45 -152 99 -216 32 -36 36 -46 30 -75 -23 -104 -115 -173 -282
-211 -40 -9 -90 -16 -112 -16 -37 0 -42 4 -65 43 -36 62 -56 140 -63 242 l-6
90 -17 -40 c-39 -91 -54 -178 -55 -301 l0 -122 -72 -17 c-40 -9 -77 -14 -82
-11 -26 16 -52 146 -69 346 l-8 85 -43 -110 c-50 -126 -61 -204 -40 -286 8
-30 14 -58 14 -64 0 -5 -36 -15 -80 -22 -93 -14 -95 -13 -123 77 -12 40 -17
91 -16 188 0 144 -2 146 -46 62 -52 -101 -62 -217 -26 -318 l15 -43 -57 -55
c-115 -111 -347 -246 -535 -313 -183 -64 -402 -89 -539 -60 -231 48 -367 227
-398 522 -11 110 -27 138 -166 300 -117 136 -158 200 -175 273 l-11 49 91 189
c50 104 91 193 91 198 0 5 -39 -24 -87 -64 -49 -41 -94 -78 -101 -82 -18 -11
-90 33 -112 70 -32 51 -27 143 10 223 44 93 108 178 193 257 88 81 171 134
224 141 38 5 40 4 98 -72 33 -42 59 -79 58 -83 -1 -4 -7 -61 -13 -127 -27
-276 36 -511 176 -655 121 -126 272 -183 484 -184 129 -1 300 19 300 35 0 5
-13 9 -28 9 -93 0 -288 86 -393 174 -122 102 -218 250 -261 403 -27 100 -29
267 -4 363 39 144 70 200 164 293 88 86 172 160 178 155 1 -2 -8 -47 -21 -100
-90 -372 -38 -635 156 -788 64 -51 148 -95 160 -83 4 4 38 62 74 128 37 66 72
126 79 133 7 7 49 15 97 19 147 10 200 -30 266 -201 15 -39 28 -73 29 -75 2
-2 54 25 116 60 62 35 164 82 227 105 62 22 117 47 121 55 12 21 60 243 60
275 -1 70 -53 114 -165 139 -85 19 -80 9 -91 186 -8 138 8 330 41 494 26 131
74 295 86 295 4 0 53 -26 109 -58z m3484 -29 c33 -111 61 -241 77 -363 14
-110 18 -369 6 -452 l-8 -56 -74 -17 c-116 -25 -165 -68 -165 -145 0 -42 54
-268 66 -279 5 -4 52 -23 104 -41 52 -18 153 -64 223 -103 70 -38 129 -68 131
-66 1 2 11 27 21 54 69 191 123 233 279 222 61 -5 85 -11 96 -25 8 -10 44 -71
79 -135 34 -64 67 -120 72 -123 14 -8 120 52 176 101 179 156 225 417 138 771
-14 54 -23 99 -21 101 6 6 134 -107 207 -183 54 -56 71 -84 96 -149 43 -111
56 -183 55 -300 -1 -125 -27 -231 -83 -334 -84 -156 -216 -283 -369 -355 -79
-37 -176 -66 -222 -66 -15 0 -28 -4 -28 -9 0 -16 171 -36 300 -35 213 1 366
59 484 185 140 148 199 370 175 653 -6 66 -11 123 -12 127 -1 4 25 42 58 84
58 76 60 77 98 72 115 -16 321 -208 413 -387 24 -47 28 -67 29 -137 0 -80 -1
-83 -34 -117 -18 -19 -46 -40 -62 -46 -27 -12 -32 -9 -123 69 -52 45 -96 81
-100 81 -3 0 37 -88 89 -196 52 -108 95 -203 95 -210 0 -8 -9 -39 -19 -70 -23
-64 -80 -146 -184 -263 -113 -128 -138 -174 -148 -277 -25 -243 -119 -406
-279 -481 -85 -41 -150 -53 -271 -53 -179 0 -374 52 -579 155 -199 100 -412
263 -395 303 51 121 37 266 -36 374 l-25 37 0 -137 c0 -115 -4 -147 -22 -196
-12 -33 -25 -63 -29 -67 -9 -9 -153 9 -165 20 -4 3 -1 28 7 55 24 80 19 143
-21 258 -20 56 -42 114 -50 128 -12 22 -13 23 -14 5 -2 -85 -23 -267 -36 -320
-25 -100 -26 -101 -117 -79 l-77 18 6 75 c8 93 -7 199 -43 306 l-27 80 -8 -94
c-9 -97 -35 -193 -70 -248 -18 -30 -24 -33 -67 -33 -58 0 -185 31 -240 59 -81
42 -131 98 -145 167 -6 27 0 40 42 97 57 75 87 145 86 202 0 32 -13 59 -63
135 -83 126 -175 313 -191 388 -7 34 -10 85 -8 114 12 121 131 159 389 122
l47 -6 -5 44 c-12 107 109 238 221 238 34 0 47 4 43 13 -3 9 -109 333 -147
448 -7 22 3 45 60 144 l68 117 99 59 c54 32 103 58 109 58 6 1 23 -38 38 -86z
m-3971 -214 c62 -17 72 -51 71 -244 -1 -123 -6 -184 -23 -265 -29 -138 -52
-173 -151 -222 -126 -64 -268 -74 -342 -25 -76 50 -114 203 -97 388 12 131 37
185 119 263 57 53 130 106 130 94 0 -2 -11 -34 -25 -73 -29 -82 -32 -168 -10
-265 19 -82 75 -252 86 -264 5 -6 9 41 9 111 0 138 26 310 64 420 14 40 28 77
31 83 8 13 90 13 138 -1z m4479 -74 c43 -128 60 -229 67 -400 l7 -160 42 130
c72 217 78 341 24 453 -11 23 -17 42 -13 42 19 0 105 -67 153 -119 72 -77 89
-130 96 -289 11 -295 -72 -399 -292 -363 -128 21 -235 83 -266 155 -33 73 -53
220 -54 386 -1 136 1 160 19 195 23 45 46 54 135 52 l55 -2 27 -80z m-2766
-60 c24 -37 11 -98 -47 -211 -66 -129 -83 -150 -126 -165 -83 -27 -196 2 -554
142 -95 37 -124 171 -46 204 68 28 321 50 614 53 142 2 143 2 159 -23z m1494
0 c190 -22 210 -33 210 -116 0 -36 -6 -47 -39 -80 -23 -21 -62 -44 -93 -54
-29 -10 -116 -42 -193 -72 -108 -42 -157 -55 -215 -60 -109 -8 -137 6 -190 97
-91 155 -119 253 -84 292 19 20 23 21 249 14 127 -3 286 -13 355 -21z m-1185
-478 l50 -13 -3 -130 c-2 -71 -7 -262 -12 -424 -6 -162 -10 -335 -10 -383 l0
-88 -52 8 c-75 11 -166 8 -211 -6 -51 -17 -89 -51 -152 -136 -61 -83 -129
-125 -201 -125 -55 0 -88 27 -113 94 -28 75 -55 267 -48 341 18 192 158 399
475 704 191 185 185 182 277 158z m498 -111 c288 -269 425 -442 492 -619 37
-99 41 -179 17 -323 -34 -195 -63 -244 -146 -244 -72 0 -140 42 -201 125 -63
85 -101 119 -152 136 -45 14 -136 17 -210 6 l-53 -8 -1 93 c0 51 -6 280 -13
508 -7 228 -11 417 -9 420 7 8 86 28 116 29 22 1 53 -23 160 -123z m-5454
-647 c29 -44 52 -81 50 -83 -2 -2 -62 -41 -134 -88 -153 -101 -351 -281 -745
-678 l-255 -257 -130 -206 -129 -205 -93 -43 c-52 -23 -96 -40 -98 -37 -6 5
60 201 104 311 44 109 60 140 172 322 85 138 131 198 327 425 336 389 387 440
497 491 109 52 321 128 355 128 20 0 35 -15 79 -80z m10395 40 c66 -23 163
-61 216 -85 84 -40 104 -55 183 -137 49 -51 192 -211 318 -357 190 -220 245
-291 325 -420 109 -176 131 -217 174 -326 48 -120 111 -307 105 -312 -2 -3
-46 14 -97 37 l-93 42 -133 210 -134 210 -261 262 c-386 388 -594 576 -740
671 -67 43 -124 80 -126 82 -2 2 20 39 50 84 36 54 60 80 73 80 11 0 74 -18
140 -41z m-9722 -850 c51 -23 126 -57 167 -75 142 -63 171 -103 171 -234 0
-95 6 -90 -143 -110 l-97 -14 -145 -133 -145 -133 -76 0 c-57 0 -98 7 -168 31
l-92 30 -99 -32 c-64 -20 -158 -63 -260 -119 -88 -49 -196 -108 -239 -132 -90
-48 -225 -170 -278 -248 -26 -40 -66 -72 -200 -162 -142 -96 -177 -125 -234
-193 -73 -88 -237 -332 -277 -410 -54 -109 -114 -338 -137 -525 -6 -52 -18
-135 -26 -185 -134 -859 -119 -1758 42 -2565 165 -826 436 -1548 1058 -2820
106 -217 192 -397 190 -399 -11 -12 -153 101 -240 192 -415 426 -877 1307
-1209 2302 -459 1373 -567 2668 -301 3580 89 306 239 601 411 816 37 46 77 81
132 115 43 27 85 50 93 52 44 11 100 13 119 3 18 -10 21 -8 31 31 36 139 118
289 198 360 78 71 132 61 168 -31 l22 -54 3 115 c4 108 6 118 41 189 48 97
125 173 187 184 34 6 52 2 96 -20 30 -14 70 -44 88 -66 l34 -39 -1 143 c-1
168 8 193 87 233 65 34 289 88 362 88 100 0 180 -58 242 -176 l28 -53 3 40 c5
85 35 243 57 301 69 183 144 211 337 123z m9068 32 c72 -38 140 -218 158 -416
l7 -80 34 63 c57 105 149 172 236 172 51 0 317 -70 364 -96 78 -42 86 -65 85
-231 l0 -142 33 39 c48 55 130 94 183 85 61 -10 140 -88 187 -183 35 -71 38
-82 42 -184 l3 -109 24 50 c39 86 91 92 170 19 65 -60 137 -183 175 -298 29
-91 33 -98 52 -89 17 10 74 8 118 -3 46 -11 180 -112 227 -170 550 -694 693
-1844 407 -3273 -159 -794 -444 -1625 -805 -2345 -250 -500 -479 -849 -710
-1081 -101 -102 -223 -200 -234 -188 -2 2 74 164 170 359 315 644 463 968 624
1371 509 1271 674 2379 544 3654 -37 365 -99 771 -139 910 -51 174 -126 313
-279 518 -110 146 -132 166 -313 290 -93 64 -174 126 -180 139 -15 33 -146
171 -201 212 -26 18 -117 71 -202 116 -85 45 -181 97 -212 116 -31 19 -106 50
-166 69 l-110 35 -90 -30 c-69 -23 -108 -30 -166 -30 l-76 0 -146 133 -145
134 -97 13 c-136 18 -138 19 -145 77 -11 99 28 197 94 230 70 36 299 138 334
149 58 18 105 17 145 -5z m-5277 3 c44 -8 47 -25 17 -84 -16 -32 -30 -42 -77
-60 -32 -12 -87 -28 -123 -36 -56 -11 -70 -19 -105 -58 -60 -67 -167 -130
-311 -182 -71 -26 -151 -59 -179 -75 -27 -15 -74 -37 -104 -49 l-55 -21 -29
30 -30 29 39 20 c36 19 94 80 94 100 0 4 -16 23 -35 42 -19 19 -35 38 -35 42
0 4 17 8 38 8 53 0 172 31 172 44 0 7 -7 21 -15 32 -23 30 -19 34 40 34 49 0
139 17 270 52 22 5 85 33 140 60 157 79 191 88 288 72z m1518 -61 c68 -33 142
-66 164 -71 131 -35 221 -52 270 -52 l56 0 -16 -30 c-8 -16 -15 -33 -15 -38 0
-10 122 -40 179 -45 l33 -2 -40 -45 -39 -45 36 -41 c20 -23 51 -49 70 -59 l34
-17 -30 -29 -29 -30 -44 16 c-25 9 -72 31 -106 49 -33 19 -117 54 -187 79
-141 51 -267 125 -320 188 -28 34 -42 42 -97 53 -36 8 -91 24 -123 36 -47 18
-61 28 -77 60 -40 78 -26 90 96 86 53 -2 79 -10 185 -63z m-2873 -427 c71 -36
138 -104 168 -171 l25 -54 -21 -208 c-54 -521 -11 -899 139 -1218 85 -181 195
-334 415 -579 58 -65 105 -121 102 -123 -7 -7 -173 64 -266 114 -370 197 -629
460 -799 813 -101 209 -154 400 -182 655 -21 194 2 568 41 691 13 37 53 78
100 99 26 11 59 15 130 12 80 -3 103 -8 148 -31z m4247 15 c45 -21 79 -54 93
-92 30 -78 46 -249 46 -479 0 -253 -10 -341 -61 -535 -118 -453 -402 -836
-797 -1075 -85 -51 -331 -172 -376 -186 l-25 -7 25 31 c14 17 85 99 158 184
216 247 332 436 407 657 96 285 119 604 75 1048 l-22 221 22 43 c48 95 121
160 218 195 56 20 189 17 237 -5z m-5841 -341 c151 -92 308 -134 496 -135
l126 0 -4 -85 c-10 -202 74 -471 283 -915 294 -623 446 -1042 594 -1643 98
-393 167 -757 336 -1762 94 -555 122 -703 160 -834 98 -339 198 -559 329 -719
45 -56 46 -57 19 -51 -135 33 -325 146 -448 268 -74 74 -160 188 -200 266 -12
25 -50 168 -84 320 -205 906 -432 1689 -634 2190 -194 480 -362 789 -767 1410
-392 600 -437 682 -466 840 -34 192 -1 445 88 670 29 73 98 220 103 220 2 0
33 -18 69 -40z m7274 -67 c120 -256 175 -546 143 -752 -28 -177 -59 -236 -426
-801 -324 -500 -417 -653 -553 -910 -329 -627 -616 -1519 -908 -2824 -52 -233
-53 -237 -114 -330 -101 -154 -203 -254 -359 -350 -77 -47 -193 -99 -248 -111
l-32 -6 35 36 c78 83 169 241 238 412 112 279 150 443 266 1138 153 914 216
1250 306 1643 150 652 334 1176 629 1787 200 416 292 713 282 910 l-4 90 126
0 c189 1 350 44 493 134 35 21 66 40 69 40 3 1 29 -47 57 -106z m-8244 -741
c177 -459 328 -757 604 -1187 28 -44 48 -83 44 -86 -10 -10 -207 -64 -357 -98
-159 -37 -444 -91 -665 -126 -340 -56 -788 -186 -1266 -371 -78 -30 -146 -54
-151 -54 -27 0 -58 310 -48 490 13 259 59 545 114 707 36 105 120 231 212 317
178 169 494 328 838 422 206 56 490 111 586 113 l40 1 49 -128z m9424 93 c491
-86 932 -272 1175 -495 107 -98 195 -236 231 -361 46 -160 90 -448 101 -664 9
-184 -21 -495 -49 -495 -6 0 -61 20 -123 44 -156 62 -458 166 -650 225 -244
76 -464 127 -730 171 -132 22 -328 58 -436 80 -194 40 -485 115 -499 128 -4 4
32 70 81 147 264 419 402 693 567 1128 l49 129 73 -7 c40 -3 134 -17 210 -30z
m-4498 -1367 c114 -36 216 -171 276 -363 39 -124 75 -155 268 -227 92 -33 108
-45 145 -108 24 -42 26 -53 26 -160 -1 -103 -4 -124 -33 -209 -37 -105 -110
-254 -206 -415 -121 -202 -172 -358 -187 -571 -11 -158 -17 -197 -60 -385 -27
-120 -31 -161 -39 -375 -9 -246 -20 -332 -60 -437 -42 -112 -136 -226 -279
-340 -50 -39 -54 -40 -47 -18 23 79 58 252 73 360 22 158 25 747 5 935 -55
508 -147 928 -261 1189 -17 39 -24 46 -35 37 -51 -43 -131 -350 -180 -692 -48
-333 -60 -514 -60 -934 -1 -385 6 -513 40 -783 9 -68 14 -125 12 -127 -2 -2
-55 38 -118 88 -232 187 -285 311 -294 685 -5 200 -8 214 -90 525 -26 100 -39
174 -46 270 -15 216 -65 363 -206 614 -132 234 -174 360 -174 519 0 116 13
179 50 237 24 38 39 49 106 76 210 86 251 120 284 233 30 101 102 236 154 291
75 77 111 91 261 97 199 9 635 1 675 -12z m-3949 -551 c225 -300 255 -346 279
-425 54 -174 129 -797 106 -887 -4 -17 -58 -81 -135 -159 -70 -72 -144 -156
-165 -188 -73 -110 -225 -162 -851 -293 -148 -31 -316 -67 -372 -81 -290 -67
-718 -206 -1059 -342 l-52 -21 -76 222 c-104 305 -201 610 -237 747 -24 91
-29 127 -25 173 14 136 143 432 275 630 88 130 275 328 372 392 200 134 575
255 1079 349 213 40 607 101 675 105 15 0 62 -55 186 -222z m7465 203 c740
-100 1292 -243 1577 -410 105 -62 310 -271 406 -415 90 -134 198 -351 242
-488 61 -185 58 -201 -172 -894 l-130 -392 -52 21 c-216 86 -584 213 -772 267
-139 40 -355 91 -640 151 -655 139 -797 187 -871 298 -20 31 -77 97 -127 146
-50 50 -110 113 -134 140 -43 50 -43 50 -43 128 0 101 34 438 61 596 27 166
51 251 85 312 32 57 405 560 415 560 3 0 73 -9 155 -20z m-5298 -1118 l123
-77 -5 -65 c-23 -280 -15 -649 20 -895 79 -545 318 -979 839 -1522 64 -68 115
-123 113 -123 -13 0 -148 60 -248 109 -337 169 -552 355 -712 620 -214 352
-293 797 -315 1776 l-6 299 34 -22 c19 -12 89 -57 157 -100z m2988 -169 c-7
-298 -28 -694 -46 -868 -81 -764 -347 -1200 -920 -1508 -75 -40 -292 -137
-306 -137 -3 0 53 62 124 138 226 240 341 380 462 563 309 467 425 961 391
1672 -8 182 -8 233 2 239 6 4 75 48 152 97 77 50 142 91 144 91 2 0 1 -129 -3
-287z m-4638 -1183 c152 -181 313 -395 371 -494 64 -108 122 -253 169 -422 50
-179 75 -302 76 -384 l1 -65 -52 -28 c-101 -54 -411 -107 -860 -147 -228 -20
-400 -41 -1103 -139 -482 -67 -545 -74 -588 -68 -52 6 -167 61 -323 153 l-131
77 6 146 c9 191 23 329 42 419 12 58 28 91 74 161 118 176 433 443 645 546
205 100 584 210 1030 300 230 46 461 84 500 82 25 -2 47 -23 143 -137z m6412
115 c526 -82 1079 -226 1344 -349 259 -119 645 -468 722 -651 27 -67 63 -398
64 -600 0 -28 -8 -36 -96 -89 -130 -80 -298 -164 -342 -172 -43 -8 -151 3
-527 57 -154 22 -311 44 -350 49 -38 5 -188 25 -332 44 -144 20 -344 43 -445
51 -342 29 -631 68 -782 106 -91 23 -174 62 -183 86 -19 49 59 406 131 608 72
197 160 339 380 614 154 191 225 271 245 271 9 0 86 -11 171 -25z m-6445
-2215 c138 -5 381 -12 540 -16 340 -8 299 8 410 -159 130 -194 223 -415 250
-595 27 -175 19 -495 -21 -819 l-17 -134 -182 -421 c-166 -385 -184 -421 -204
-418 -13 1 -125 41 -249 88 -640 244 -1193 517 -1437 709 -150 118 -580 633
-767 919 -156 239 -225 404 -235 563 l-6 92 39 39 c80 80 291 127 679 151 184
11 903 12 1200 1z m7351 0 c390 -23 610 -69 693 -146 l36 -33 -1 -98 c-1 -78
-6 -114 -27 -176 -67 -194 -224 -447 -470 -752 -173 -215 -420 -494 -479 -541
-184 -148 -453 -298 -859 -480 -351 -157 -855 -352 -870 -337 -4 4 -89 195
-187 423 l-179 416 -16 129 c-38 299 -49 645 -26 812 28 210 183 542 336 723
l38 45 275 2 c151 2 376 7 500 11 329 13 1030 14 1236 2z m-4663 -226 c421
-31 440 -31 1015 17 l263 22 15 -21 c14 -21 19 -21 208 -15 l193 6 51 -207
c69 -277 87 -410 113 -806 25 -390 23 -692 -6 -795 -68 -247 -286 -486 -653
-718 -217 -138 -761 -389 -789 -365 -9 7 -17 7 -26 0 -30 -25 -581 231 -802
373 -281 179 -467 356 -569 538 -79 140 -97 237 -97 502 0 110 5 256 11 325 6
69 17 226 25 350 15 246 33 355 101 618 24 96 44 176 44 179 0 4 88 3 195 0
190 -6 196 -6 208 14 10 18 20 20 67 16 30 -2 225 -17 433 -33z"/>
</g>
</svg>
